{
  "accessors": [
    {
      "bufferView": 2,
      "componentType": 5126,
      "count": 29748,
      "max": [
        8.820144653320313,
        1.4423860311508179,
        1.7007310390472412
      ],
      "min": [
        -3.6177470684051514,
        -1.1130549907684326,
        -0.5347865223884583
      ],
      "type": "VEC3"
    },
    {
      "bufferView": 2,
      "byteOffset": 356976,
      "componentType": 5126,
      "count": 29748,
      "max": [
        1.0,
        1.0,
        1.0
      ],
      "min": [
        -1.0,
        -1.0,
        -1.0
      ],
      "type": "VEC3"
    },
    {
      "bufferView": 1,
      "componentType": 5126,
      "count": 29748,
      "max": [
        1.0,
        0.9999644756317139
      ],
      "min": [
        0.0,
        0.0
      ],
      "type": "VEC2"
    },
    {
      "bufferView": 0,
      "componentType": 5125,
      "count": 68406,
      "type": "SCALAR"
    },
    {
      "bufferView": 2,
      "byteOffset": 713952,
      "componentType": 5126,
      "count": 2295,
      "max": [
        4.671444892883301,
        1.0442490577697754,
        1.7695879936218262
      ],
      "min": [
        -3.4477651119232178,
        -0.5088241100311279,
        0.38638588786125183
      ],
      "type": "VEC3"
    },
    {
      "bufferView": 2,
      "byteOffset": 741492,
      "componentType": 5126,
      "count": 2295,
      "max": [
        1.0,
        1.0,
        1.0
      ],
      "min": [
        -1.0,
        -1.0,
        -1.0
      ],
      "type": "VEC3"
    },
    {
      "bufferView": 1,
      "byteOffset": 237984,
      "componentType": 5126,
      "count": 2295,
      "max": [
        1.0,
        0.6594824194908142
      ],
      "min": [
        0.0,
        0.0
      ],
      "type": "VEC2"
    },
    {
      "bufferView": 0,
      "byteOffset": 273624,
      "componentType": 5125,
      "count": 6216,
      "type": "SCALAR"
    },
    {
      "bufferView": 2,
      "byteOffset": 769032,
      "componentType": 5126,
      "count": 25689,
      "max": [
        8.551669120788574,
        1.373324990272522,
        1.8818390369415283
      ],
      "min": [
        -3.5328400135040283,
        -0.7429041862487793,
        0.3941836953163147
      ],
      "type": "VEC3"
    },
    {
      "bufferView": 2,
      "byteOffset": 1077300,
      "componentType": 5126,
      "count": 25689,
      "max": [
        1.0,
        1.0,
        1.0
      ],
      "min": [
        -1.0,
        -1.0,
        -1.0
      ],
      "type": "VEC3"
    },
    {
      "bufferView": 1,
      "byteOffset": 256344,
      "componentType": 5126,
      "count": 25689,
      "max": [
        1.0,
        1.0
      ],
      "min": [
        0.0,
        0.0
      ],
      "type": "VEC2"
    },
    {
      "bufferView": 0,
      "byteOffset": 298488,
      "componentType": 5125,
      "count": 63522,
      "type": "SCALAR"
    },
    {
      "bufferView": 2,
      "byteOffset": 1385568,
      "componentType": 5126,
      "count": 4502,
      "max": [
        3.323237895965576,
        1.265889048576355,
        1.770416021347046
      ],
      "min": [
        -2.656083106994629,
        -0.6322590112686157,
        0.8793746829032898
      ],
      "type": "VEC3"
    },
    {
      "bufferView": 2,
      "byteOffset": 1439592,
      "componentType": 5126,
      "count": 4502,
      "max": [
        0.9999998211860657,
        0.9999998807907104,
        0.9988659620285034
      ],
      "min": [
        -0.9999998807907104,
        -0.9999998807907104,
        -0.9988535046577454
      ],
      "type": "VEC3"
    },
    {
      "bufferView": 1,
      "byteOffset": 461856,
      "componentType": 5126,
      "count": 4502,
      "max": [
        1.0,
        0.6594824194908142
      ],
      "min": [
        0.0,
        0.0
      ],
      "type": "VEC2"
    },
    {
      "bufferView": 0,
      "byteOffset": 552576,
      "componentType": 5125,
      "count": 9396,
      "type": "SCALAR"
    }
  ],
  "asset": {
    "extras": {
      "author": "Alambrito Delgado B] (https://sketchfab.com/alambritodelgado2034)",
      "license": "CC-BY-4.0 (http://creativecommons.org/licenses/by/4.0/)",
      "source": "https://sketchfab.com/3d-models/titanic-wreck-1912-prisma3d-de6599a8935245b18cf834447147eb80",
      "title": "Titanic Wreck 1912 (Prisma3d)"
    },
    "generator": "Sketchfab-15.36.0",
    "version": "2.0"
  },
  "bufferViews": [
    {
      "buffer": 0,
      "byteLength": 590160,
      "name": "floatBufferViews",
      "target": 34963
    },
    {
      "buffer": 0,
      "byteLength": 497872,
      "byteOffset": 590160,
      "byteStride": 8,
      "name": "floatBufferViews",
      "target": 34962
    },
    {
      "buffer": 0,
      "byteLength": 1493616,
      "byteOffset": 1088032,
      "byteStride": 12,
      "name": "floatBufferViews",
      "target": 34962
    }
  ],
  "buffers": [
    {
      "byteLength": 2581648,
      "uri": "scene.bin"
    }
  ],
  "images": [
    {
      "uri": "textures/Material_1_baseColor.jpeg"
    }
  ],
  "materials": [
    {
      "doubleSided": true,
      "name": "Material_1",
      "pbrMetallicRoughness": {
        "baseColorTexture": {
          "index": 0
        },
        "metallicFactor": 0.17079121061071328,
        "roughnessFactor": 0.6
      }
    },
    {
      "doubleSided": true,
      "name": "Material_2",
      "pbrMetallicRoughness": {
        "baseColorTexture": {
          "index": 0
        },
        "metallicFactor": 0.0,
        "roughnessFactor": 0.6
      }
    }
  ],
  "meshes": [
    {
      "name": "Object_0",
      "primitives": [
        {
          "attributes": {
            "NORMAL": 1,
            "POSITION": 0,
            "TEXCOORD_0": 2
          },
          "indices": 3,
          "material": 1,
          "mode": 4
        }
      ]
    },
    {
      "name": "Object_1",
      "primitives": [
        {
          "attributes": {
            "NORMAL": 5,
            "POSITION": 4,
            "TEXCOORD_0": 6
          },
          "indices": 7,
          "material": 0,
          "mode": 4
        }
      ]
    },
    {
      "name": "Object_2",
      "primitives": [
        {
          "attributes": {
            "NORMAL": 9,
            "POSITION": 8,
            "TEXCOORD_0": 10
          },
          "indices": 11,
          "material": 0,
          "mode": 4
        }
      ]
    },
    {
      "name": "Object_3",
      "primitives": [
        {
          "attributes": {
            "NORMAL": 13,
            "POSITION": 12,
            "TEXCOORD_0": 14
          },
          "indices": 15,
          "material": 0,
          "mode": 4
        }
      ]
    }
  ],
  "nodes": [
    {
      "children": [
        1
      ],
      "matrix": [
        1.0,
        0.0,
        0.0,
        0.0,
        0.0,
        2.220446049250313e-16,
        -1.0,
        0.0,
        0.0,
        1.0,
        2.220446049250313e-16,
        0.0,
        0.0,
        0.0,
        0.0,
        1.0
      ],
      "name": "Sketchfab_model"
    },
    {
      "children": [
        2,
        3,
        4,
        5
      ],
      "name": "Nuevo Proyecto 7.obj.cleaner.materialmerger.gles"
    },
    {
      "mesh": 0,
      "name": "Object_2"
    },
    {
      "mesh": 1,
      "name": "Object_3"
    },
    {
      "mesh": 2,
      "name": "Object_4"
    },
    {
      "mesh": 3,
      "name": "Object_5"
    }
  ],
  "samplers": [
    {
      "magFilter": 9729,
      "minFilter": 9987,
      "wrapS": 10497,
      "wrapT": 10497
    }
  ],
  "scene": 0,
  "scenes": [
    {
      "name": "Sketchfab_Scene",
      "nodes": [
        0
      ]
    }
  ],
  "textures": [
    {
      "sampler": 0,
      "source": 0
    }
  ]
}
